<svg width="22" height="20" viewBox="0 0 22 20" fill="none" xmlns="http://www.w3.org/2000/svg">
<path d="M16.79 11V18H2.79004V4H7.81004C7.86004 3.29 8.03004 2.62 8.29004 2H2.79004C1.69004 2 0.790039 2.9 0.790039 4V18C0.790039 19.1 1.69004 20 2.79004 20H16.79C17.89 20 18.79 19.1 18.79 18V13L16.79 11ZM15.29 16H4.29004L7.04004 12.47L9.00004 14.83L11.75 11.29L15.29 16ZM18.09 6.89C18.53 6.19 18.79 5.38 18.79 4.5C18.79 2.01 16.78 0 14.29 0C11.8 0 9.79004 2.01 9.79004 4.5C9.79004 6.99 11.8 9 14.28 9C15.16 9 15.98 8.74 16.67 8.3L19.79 11.42L21.21 10L18.09 6.89ZM14.29 7C12.91 7 11.79 5.88 11.79 4.5C11.79 3.12 12.91 2 14.29 2C15.67 2 16.79 3.12 16.79 4.5C16.79 5.88 15.67 7 14.29 7Z" fill="black"/>
</svg>
